<?xml version="1.0" encoding="utf-8"?>
<!-- Generator: Adobe Illustrator 16.0.0, SVG Export Plug-In . SVG Version: 6.00 Build 0)  -->
<!DOCTYPE svg PUBLIC "-//W3C//DTD SVG 1.1//EN" "http://www.w3.org/Graphics/SVG/1.1/DTD/svg11.dtd">
<svg version="1.1" id="Capa_1" xmlns="http://www.w3.org/2000/svg" xmlns:xlink="http://www.w3.org/1999/xlink" x="0px" y="0px"
	 width="897.387px" height="130.203px" viewBox="0 0 897.387 130.203" enable-background="new 0 0 897.387 130.203"
	 xml:space="preserve">
<g>
	<defs>
		<rect id="SVGID_1_" width="897.387" height="130.203"/>
	</defs>
	<clipPath id="SVGID_2_">
		<use xlink:href="#SVGID_1_"  overflow="visible"/>
	</clipPath>
	<path clip-path="url(#SVGID_2_)" fill-rule="evenodd" clip-rule="evenodd" fill="#E41E2F" d="M881.625,97.43
		c-5.257,25.519-20.889,32.398-38.396,32.398H728.912l15.762-76.421c5.753-29.765,25.261-32.394,42.894-32.394h109.819
		L881.625,97.43z"/>
	<path clip-path="url(#SVGID_2_)" fill-rule="evenodd" clip-rule="evenodd" fill="#FFFFFF" d="M832.345,64.412l-12.134-11.505
		c-3.499-3.378-3.499-8.755,0-12.008c3.504-3.374,9.136-3.374,12.634,0l26.014,24.638c3.382,3.382,3.382,8.755,0,12.133
		l-39.521,36.272c-3.503,3.379-9.126,3.379-12.63,0c-3.502-3.378-3.502-8.632,0-12.01l26.888-24.513l2.504-2.377
		c3.128-2.871,2.754-4.25-0.376-7.253L832.345,64.412z"/>
	<path clip-path="url(#SVGID_2_)" fill-rule="evenodd" clip-rule="evenodd" fill="#FFFFFF" d="M792.076,64.412l-12.137-11.505
		c-3.496-3.378-3.496-8.755,0-12.008c3.505-3.374,9.132-3.374,12.631,0l26.018,24.638c3.378,3.382,3.378,8.755,0,12.133
		l-39.521,36.272c-3.504,3.379-9.132,3.379-12.633,0c-3.503-3.378-3.503-8.632,0-12.01l26.891-24.513l2.499-2.377
		c3.128-2.871,2.754-4.25-0.375-7.253L792.076,64.412z"/>
	<polygon clip-path="url(#SVGID_2_)" fill-rule="evenodd" clip-rule="evenodd" fill="#1B1B1B" points="131.074,4.632 124.572,4.632 
		125.572,0.129 143.708,0.129 142.833,4.632 136.331,4.632 132.574,24.517 127.325,24.517 	"/>
	<path clip-path="url(#SVGID_2_)" fill-rule="evenodd" clip-rule="evenodd" fill="#1B1B1B" d="M153.338,14.262l-0.505-5.257
		c-0.12-1.37-0.245-3.373-0.374-4.873c-0.621,1.5-1.374,3.373-1.995,4.873l-2.379,5.257H153.338z M146.586,18.261L146.586,18.261
		l-3.003,6.256h-5.507L149.96,0.129h6.631l2.998,24.388h-5.502l-0.499-6.256H146.586z"/>
	<path clip-path="url(#SVGID_2_)" fill-rule="evenodd" clip-rule="evenodd" fill="#1B1B1B" d="M169.599,11.008h2.125
		c2.877,0,4.877-1.749,4.877-4.127c0-1.876-1.624-2.75-3.753-2.75c-0.875,0-1.504,0-1.999,0.121L169.599,11.008z M166.471,0.628
		L166.471,0.628C168.095,0.254,170.474,0,172.973,0c2.249,0,4.628,0.254,6.381,1.379c1.625,0.874,2.749,2.498,2.749,4.751
		c0,3.624-2.503,5.882-5.627,6.877v0.13c1.499,0.621,2.128,2.249,2.374,4.498c0.25,2.754,0.504,5.878,1.004,6.882h-5.382
		c-0.25-0.63-0.495-2.75-0.749-5.757c-0.251-2.874-1.25-3.873-3.249-3.873h-1.624l-1.883,9.63h-5.124L166.471,0.628z"/>
	<path clip-path="url(#SVGID_2_)" fill-rule="evenodd" clip-rule="evenodd" fill="#1B1B1B" d="M192.982,0.129h5.128l-2.999,16.131
		c-1.124,6.133-3.878,8.632-9.38,8.632c-1.629,0-3.253-0.25-4.003-0.5l1.004-4.503c0.749,0.246,1.745,0.5,2.874,0.5
		c2.373,0,3.753-1.124,4.378-4.753L192.982,0.129z"/>
	<polygon clip-path="url(#SVGID_2_)" fill-rule="evenodd" clip-rule="evenodd" fill="#1B1B1B" points="213.122,14.137 
		204.492,14.137 203.367,20.014 213.122,20.014 212.248,24.517 197.236,24.517 201.863,0.125 216.371,0.125 215.5,4.633 
		206.241,4.633 205.241,9.759 213.992,9.759 	"/>
	<polygon clip-path="url(#SVGID_2_)" fill-rule="evenodd" clip-rule="evenodd" fill="#1B1B1B" points="225.376,4.632 219,4.632 
		219.875,0.129 238.009,0.129 237.135,4.632 230.633,4.632 226.88,24.517 221.628,24.517 	"/>
	<path clip-path="url(#SVGID_2_)" fill-rule="evenodd" clip-rule="evenodd" fill="#1B1B1B" d="M246.89,14.262l-0.375-5.257
		c-0.129-1.37-0.25-3.373-0.375-4.873h-0.129c-0.621,1.5-1.246,3.373-1.995,4.873l-2.378,5.257H246.89z M240.134,18.261
		L240.134,18.261l-2.874,6.256h-5.502l11.753-24.388h6.757l2.874,24.388h-5.502l-0.5-6.256H240.134z"/>
	<path clip-path="url(#SVGID_2_)" fill-rule="evenodd" clip-rule="evenodd" fill="#1B1B1B" d="M0,129.823l4.252-21.139H49.03
		c22.259,0,26.266-3.124,29.39-18.007c3.878-18.26-6.377-15.881-25.267-16.88c-27.261-1.63-46.651-0.63-38.77-37.776
		C21.76,0.75,41.274,0.376,72.043,0.376h37.646l-4.132,20.638H68.036c-24.388,0-28.89,1.25-31.768,15.008
		c-3.25,15.632-0.122,16.136,24.391,17.636c39.021,2.379,47.027,4.507,40.146,37.02c-7.627,36.018-23.134,39.146-56.153,39.146H0z"
		/>
	<path clip-path="url(#SVGID_2_)" fill-rule="evenodd" clip-rule="evenodd" fill="#1B1B1B" d="M121.319,38.15l-13.758,66.536
		c-4.003,19.639,6.627,25.137,24.637,25.137h28.641c21.39,0,26.396-22.009,27.145-25.387c0.75-3.378,9.252-45.522,9.252-45.522
		l4.378-20.764h-21.885l-8.005,39.77l-4.254,19.511c0,0-1.628,11.255-11.383,11.255h-13.759c-8.255,0-13.128-2.499-11.254-11.255
		l12.259-59.28H121.319z"/>
	<path clip-path="url(#SVGID_2_)" fill-rule="evenodd" clip-rule="evenodd" fill="#1B1B1B" d="M201.363,86.177
		c8.755-40.896,18.886-48.026,56.656-48.026h30.645l-4.128,20.634L256.52,58.91c-24.766,0-27.891,3.128-33.268,28.141l-0.504,3.503
		c-1.995,16.007,2.753,18.135,24.263,18.135h27.391l-4.498,21.14h-27.766c-40.399,0.751-46.027-8.885-41.649-38.649L201.363,86.177z
		"/>
	<path clip-path="url(#SVGID_2_)" fill-rule="evenodd" clip-rule="evenodd" fill="#1B1B1B" d="M349.074,58.785h-25.267
		c-4.374,0-6.002,1.124-6.877,5.757l-2.004,9.875l-11.379,55.412h-22.013l15.007-72.544c2.128-11.758,8.255-19.134,21.139-19.134
		h35.397L349.074,58.785z"/>
	<polygon clip-path="url(#SVGID_2_)" fill-rule="evenodd" clip-rule="evenodd" fill="#1B1B1B" points="553.69,129.823 
		531.802,129.823 550.563,38.151 572.571,38.151 	"/>
	<polygon clip-path="url(#SVGID_2_)" fill-rule="evenodd" clip-rule="evenodd" fill="#1B1B1B" points="574.075,31.019 
		552.062,31.019 554.939,17.385 576.829,17.385 	"/>
	<path clip-path="url(#SVGID_2_)" fill-rule="evenodd" clip-rule="evenodd" fill="#1B1B1B" d="M652.995,84.301
		c-4.752,22.765,3.254,24.764,14.259,24.764c14.756,0,20.633,1.125,25.638-22.765c5.131-24.263,0.999-28.14-14.256-28.14
		C660.876,58.16,657.998,60.913,652.995,84.301 M715.155,84.051L715.155,84.051c-7.378,34.644-15.259,46.152-52.533,46.152
		c-32.265,0-38.892-11.509-31.516-46.152c7.382-34.771,13.634-45.9,51.032-45.9C719.532,38.15,722.531,49.28,715.155,84.051"/>
	<path clip-path="url(#SVGID_2_)" fill-rule="evenodd" clip-rule="evenodd" fill="#1B1B1B" d="M503.036,97.43
		c-3.753,9.757-10.386,11.259-23.768,11.259c-19.006,0-17.261-7.875-13.379-25.767c4.503-21.009,6.877-24.886,25.886-24.886
		c13.265,0,18.138,1.498,17.013,11.505C508.414,73.797,503.036,97.43,503.036,97.43 M521.422,8.505L521.422,8.505l-6.627,32.024
		c-5.007-1.129-11.509-2.379-19.516-2.379c-37.396,0-44.526,11.13-51.903,45.897c-7.38,34.646-4.877,45.777,32.519,45.777
		c8.006,0,14.632-0.495,20.14-1.624c17.382-3.628,25.508-13.634,29.512-33.394l4.881-22.639l13.005-63.663H521.422z"/>
	<path clip-path="url(#SVGID_2_)" fill-rule="evenodd" clip-rule="evenodd" fill="#1B1B1B" d="M378.089,63.163
		c4.753-5.253,13.133-5.378,22.889-5.378c5.627,0,10.379,0.624,12.758,3.128c1.75,1.999,1.125,5.129,0.495,8.381
		c-0.495,2.25-0.62,2.624-1.124,5.249h-39.021C374.086,74.543,375.46,66.042,378.089,63.163 M385.22,108.688L385.22,108.688
		c-14.387,0-17.011-4.507-16.011-11.255l1.249-5.631h60.164c2.624-12.259,4.253-20.259,5.873-28.14
		c2.879-14.383-8.251-23.639-23.764-24.889c-4.752-0.499-20.634-0.375-24.262,0.126c-25.892,3.002-32.894,17.257-38.77,45.397
		c-7.382,34.647-2.754,45.531,31.639,45.531h41.524l4.253-21.14H385.22z"/>
	<path clip-path="url(#SVGID_2_)" fill-rule="evenodd" clip-rule="evenodd" fill="#1B1B1B" d="M402.977,31.394l17.761-16.258
		c3.128-2.623,7.756-2.249,10.379,0.876c2.629,3.128,2.255,7.881-0.87,10.504l-12.012,4.878H402.977z"/>
	<polygon clip-path="url(#SVGID_2_)" fill-rule="evenodd" clip-rule="evenodd" fill="#1B1B1B" points="628.732,58.785 615.6,58.785 
		600.966,129.829 579.078,129.829 593.711,58.785 580.327,58.785 584.585,38.15 597.838,38.15 602.216,17.386 624.104,17.386 
		619.848,38.15 633.105,38.15 	"/>
</g>
</svg>
